<mxfile host="app.diagrams.net" modified="2020-12-11T07:27:10.935Z" agent="5.0 (Windows NT 10.0; Win64; x64) AppleWebKit/537.36 (KHTML, like Gecko) Chrome/72.0.3626.121 Safari/537.36" etag="MG1K1SPZiKvlc9bUvSd5" version="14.0.1" type="github">
  <diagram id="kgpKYQtTHZ0yAKxKKP6v" name="Page-1">
    <mxGraphModel dx="1422" dy="762" grid="1" gridSize="10" guides="1" tooltips="1" connect="1" arrows="1" fold="1" page="1" pageScale="1" pageWidth="850" pageHeight="1100" math="0" shadow="0">
      <root>
        <mxCell id="0" />
        <mxCell id="1" parent="0" />
        <mxCell id="3nuBFxr9cyL0pnOWT2aG-1" value="主进程" style="shape=umlLifeline;perimeter=lifelinePerimeter;container=1;collapsible=0;recursiveResize=0;rounded=0;shadow=0;strokeWidth=1;" parent="1" vertex="1">
          <mxGeometry x="90" y="80" width="190" height="300" as="geometry" />
        </mxCell>
        <mxCell id="3nuBFxr9cyL0pnOWT2aG-2" value="" style="points=[];perimeter=orthogonalPerimeter;rounded=0;shadow=0;strokeWidth=1;" parent="3nuBFxr9cyL0pnOWT2aG-1" vertex="1">
          <mxGeometry x="90" y="60" width="10" height="240" as="geometry" />
        </mxCell>
        <mxCell id="3nuBFxr9cyL0pnOWT2aG-3" value="1.开启视频通话" style="verticalAlign=bottom;startArrow=oval;endArrow=block;startSize=8;shadow=0;strokeWidth=1;" parent="3nuBFxr9cyL0pnOWT2aG-1" target="3nuBFxr9cyL0pnOWT2aG-2" edge="1">
          <mxGeometry relative="1" as="geometry">
            <mxPoint x="-40" y="70" as="sourcePoint" />
            <Array as="points">
              <mxPoint x="-40" y="70" />
            </Array>
          </mxGeometry>
        </mxCell>
        <mxCell id="3nuBFxr9cyL0pnOWT2aG-4" value="" style="points=[];perimeter=orthogonalPerimeter;rounded=0;shadow=0;strokeWidth=1;" parent="3nuBFxr9cyL0pnOWT2aG-1" vertex="1">
          <mxGeometry x="100" y="140" width="10" height="140" as="geometry" />
        </mxCell>
        <mxCell id="3nuBFxr9cyL0pnOWT2aG-5" value="采集线程" style="shape=umlLifeline;perimeter=lifelinePerimeter;container=1;collapsible=0;recursiveResize=0;rounded=0;shadow=0;strokeWidth=1;" parent="1" vertex="1">
          <mxGeometry x="320" y="80" width="80" height="300" as="geometry" />
        </mxCell>
        <mxCell id="3nuBFxr9cyL0pnOWT2aG-6" value="" style="points=[];perimeter=orthogonalPerimeter;rounded=0;shadow=0;strokeWidth=1;" parent="3nuBFxr9cyL0pnOWT2aG-5" vertex="1">
          <mxGeometry x="37" y="80" width="10" height="220" as="geometry" />
        </mxCell>
        <mxCell id="3dtoHHLjRzKScGeUbtJA-7" value="" style="points=[];perimeter=orthogonalPerimeter;rounded=0;shadow=0;strokeWidth=1;" vertex="1" parent="3nuBFxr9cyL0pnOWT2aG-5">
          <mxGeometry x="47" y="190" width="10" height="86" as="geometry" />
        </mxCell>
        <mxCell id="3nuBFxr9cyL0pnOWT2aG-8" value="2.发送视频采集初始参数" style="verticalAlign=bottom;endArrow=block;entryX=0;entryY=0;shadow=0;strokeWidth=1;" parent="1" source="3nuBFxr9cyL0pnOWT2aG-2" target="3nuBFxr9cyL0pnOWT2aG-6" edge="1">
          <mxGeometry y="10" relative="1" as="geometry">
            <mxPoint x="275" y="160" as="sourcePoint" />
            <mxPoint as="offset" />
          </mxGeometry>
        </mxCell>
        <mxCell id="3dtoHHLjRzKScGeUbtJA-2" value="3.初始化成功" style="verticalAlign=bottom;endArrow=open;dashed=1;endSize=8;shadow=0;strokeWidth=1;" edge="1" parent="1">
          <mxGeometry relative="1" as="geometry">
            <mxPoint x="186" y="178.99999999999977" as="targetPoint" />
            <mxPoint x="355" y="179" as="sourcePoint" />
          </mxGeometry>
        </mxCell>
        <mxCell id="3dtoHHLjRzKScGeUbtJA-8" value="5.启动数据发送模块" style="verticalAlign=bottom;endArrow=block;shadow=0;strokeWidth=1;" edge="1" parent="1">
          <mxGeometry relative="1" as="geometry">
            <mxPoint x="200" y="250" as="sourcePoint" />
            <mxPoint x="350" y="250" as="targetPoint" />
            <mxPoint as="offset" />
          </mxGeometry>
        </mxCell>
        <mxCell id="3dtoHHLjRzKScGeUbtJA-9" value="" style="endArrow=classic;html=1;" edge="1" parent="1">
          <mxGeometry width="50" height="50" relative="1" as="geometry">
            <mxPoint x="365.5" y="255" as="sourcePoint" />
            <mxPoint x="377.5" y="270" as="targetPoint" />
            <Array as="points">
              <mxPoint x="422.5" y="255" />
              <mxPoint x="442.5" y="255" />
              <mxPoint x="443" y="270" />
              <mxPoint x="398" y="270" />
            </Array>
          </mxGeometry>
        </mxCell>
        <mxCell id="3dtoHHLjRzKScGeUbtJA-6" value="4.启动数据处理模块" style="text;html=1;strokeColor=none;fillColor=none;align=center;verticalAlign=middle;whiteSpace=wrap;rounded=0;" vertex="1" parent="1">
          <mxGeometry x="210" y="190" width="110" height="20" as="geometry" />
        </mxCell>
        <mxCell id="3dtoHHLjRzKScGeUbtJA-11" value="" style="endArrow=classic;html=1;" edge="1" parent="1">
          <mxGeometry width="50" height="50" relative="1" as="geometry">
            <mxPoint x="190" y="210" as="sourcePoint" />
            <mxPoint x="202" y="225" as="targetPoint" />
            <Array as="points">
              <mxPoint x="247" y="210" />
              <mxPoint x="267" y="210" />
              <mxPoint x="267.5" y="225" />
              <mxPoint x="222.5" y="225" />
            </Array>
          </mxGeometry>
        </mxCell>
        <mxCell id="3dtoHHLjRzKScGeUbtJA-12" value="6.启动前后摄像头采集" style="text;html=1;strokeColor=none;fillColor=none;align=center;verticalAlign=middle;whiteSpace=wrap;rounded=0;" vertex="1" parent="1">
          <mxGeometry x="370" y="230" width="110" height="20" as="geometry" />
        </mxCell>
        <mxCell id="3dtoHHLjRzKScGeUbtJA-17" value="7.发送采集数据" style="verticalAlign=bottom;endArrow=open;dashed=1;endSize=8;shadow=0;strokeWidth=1;" edge="1" parent="1">
          <mxGeometry relative="1" as="geometry">
            <mxPoint x="200" y="280.9999999999998" as="targetPoint" />
            <mxPoint x="354" y="281" as="sourcePoint" />
          </mxGeometry>
        </mxCell>
        <mxCell id="3dtoHHLjRzKScGeUbtJA-21" value="8.采集数据帧处理" style="text;html=1;strokeColor=none;fillColor=none;align=center;verticalAlign=middle;whiteSpace=wrap;rounded=0;" vertex="1" parent="1">
          <mxGeometry x="220" y="290" width="110" height="30" as="geometry" />
        </mxCell>
        <mxCell id="3dtoHHLjRzKScGeUbtJA-23" value="" style="endArrow=classic;html=1;entryX=0.9;entryY=0.875;entryDx=0;entryDy=0;entryPerimeter=0;" edge="1" parent="1">
          <mxGeometry width="50" height="50" relative="1" as="geometry">
            <mxPoint x="211" y="322.5" as="sourcePoint" />
            <mxPoint x="210" y="337.5" as="targetPoint" />
            <Array as="points">
              <mxPoint x="268" y="322.5" />
              <mxPoint x="288" y="322.5" />
              <mxPoint x="288.5" y="337.5" />
              <mxPoint x="243.5" y="337.5" />
            </Array>
          </mxGeometry>
        </mxCell>
        <mxCell id="3dtoHHLjRzKScGeUbtJA-24" value="" style="points=[];perimeter=orthogonalPerimeter;rounded=0;shadow=0;strokeWidth=1;" vertex="1" parent="1">
          <mxGeometry x="200" y="310" width="10" height="40" as="geometry" />
        </mxCell>
        <mxCell id="3dtoHHLjRzKScGeUbtJA-25" value="" style="endArrow=classic;html=1;" edge="1" parent="1">
          <mxGeometry width="50" height="50" relative="1" as="geometry">
            <mxPoint x="200" y="300" as="sourcePoint" />
            <mxPoint x="212" y="315" as="targetPoint" />
            <Array as="points">
              <mxPoint x="257" y="300" />
              <mxPoint x="277" y="300" />
              <mxPoint x="277.5" y="315" />
              <mxPoint x="232.5" y="315" />
            </Array>
          </mxGeometry>
        </mxCell>
        <mxCell id="3dtoHHLjRzKScGeUbtJA-26" value="10.停止视频通话" style="verticalAlign=bottom;startArrow=oval;endArrow=block;startSize=8;shadow=0;strokeWidth=1;" edge="1" parent="1">
          <mxGeometry relative="1" as="geometry">
            <mxPoint x="50" y="350" as="sourcePoint" />
            <mxPoint x="180" y="350" as="targetPoint" />
            <Array as="points">
              <mxPoint x="50" y="350" />
            </Array>
          </mxGeometry>
        </mxCell>
        <mxCell id="3dtoHHLjRzKScGeUbtJA-27" value="9.数据回显与发送" style="text;html=1;strokeColor=none;fillColor=none;align=center;verticalAlign=middle;whiteSpace=wrap;rounded=0;" vertex="1" parent="1">
          <mxGeometry x="200" y="315" width="150" height="30" as="geometry" />
        </mxCell>
        <mxCell id="3dtoHHLjRzKScGeUbtJA-28" value="11.结束数据采集" style="verticalAlign=bottom;endArrow=block;shadow=0;strokeWidth=1;" edge="1" parent="1">
          <mxGeometry relative="1" as="geometry">
            <mxPoint x="200" y="357" as="sourcePoint" />
            <mxPoint x="350" y="357" as="targetPoint" />
            <mxPoint as="offset" />
          </mxGeometry>
        </mxCell>
        <mxCell id="3dtoHHLjRzKScGeUbtJA-29" value="12.关闭数据采集" style="verticalAlign=bottom;endArrow=open;dashed=1;endSize=8;shadow=0;strokeWidth=1;" edge="1" parent="1">
          <mxGeometry relative="1" as="geometry">
            <mxPoint x="196" y="373.9999999999998" as="targetPoint" />
            <mxPoint x="350" y="374" as="sourcePoint" />
          </mxGeometry>
        </mxCell>
      </root>
    </mxGraphModel>
  </diagram>
</mxfile>
